<svg width="24" height="24" viewBox="0 0 24 24" fill="none" xmlns="http://www.w3.org/2000/svg">
<circle cx="12.001" cy="11.001" r="8" stroke="#7E7E7F" stroke-width="1.2"/>
<path d="M7.5 17.6143L7.83804 17.1185L6.9 16.4789V17.6143H7.5ZM16.5 17.6152H17.1V16.4802L16.1621 17.1194L16.5 17.6152ZM7.5 17.6143L7.16196 18.11C8.54062 19.0501 10.207 19.601 12.001 19.601V19.001V18.401C10.4563 18.401 9.02422 17.9274 7.83804 17.1185L7.5 17.6143ZM12.001 19.001V19.601C13.7942 19.601 15.4597 19.0503 16.8379 18.111L16.5 17.6152L16.1621 17.1194C14.9762 17.9277 13.5448 18.401 12.001 18.401V19.001ZM16.5 17.6152H15.9V18.001H16.5H17.1V17.6152H16.5ZM16.5 18.001H15.9C15.9 20.1549 14.1539 21.901 12 21.901V22.501V23.101C14.8167 23.101 17.1 20.8176 17.1 18.001H16.5ZM12 22.501V21.901C9.84609 21.901 8.1 20.1549 8.1 18.001H7.5H6.9C6.9 20.8176 9.18335 23.101 12 23.101V22.501ZM7.5 18.001H8.1V17.6143H7.5H6.9V18.001H7.5Z" fill="#7E7E7F"/>
<path d="M12 12.002L12.1056 12.2131C12.4741 12.9501 13.5259 12.9501 13.8944 12.2131L14.001 12" stroke="#7E7E7F" stroke-width="1.2" stroke-linecap="round"/>
<path d="M10 12.002L10.1056 12.2131C10.4741 12.9501 11.5259 12.9501 11.8944 12.2131L12.001 12" stroke="#7E7E7F" stroke-width="1.2" stroke-linecap="round"/>
</svg>
